<svg xmlns="http://www.w3.org/2000/svg" viewBox="0 0 2528.09 1717.93"><defs><style>.cls-1{fill:#ebf3fa;}.cls-2{fill:#d4e1ff;}.cls-3{fill:#fff;}.cls-4{fill:#aec3ff;}.cls-5{fill:#83a9ff;}.cls-6{fill:#f99746;}.cls-7{fill:#e3eeff;}.cls-8{fill:#f8fcff;}.cls-9{fill:#2c3a64;}.cls-10{fill:#ffb27d;}.cls-11{fill:#94b0ed;}.cls-12{fill:#ed985f;}.cls-13{fill:#ed7d2b;}.cls-14{fill:#2b478b;}.cls-15{fill:#ccdcff;}.cls-16{fill:#233862;}.cls-17{fill:#163560;}.cls-18{fill:#060633;}.cls-19{fill:#ccdbfd;}.cls-20{fill:#a6c6ff;}.cls-21{fill:#a8d29f;}.cls-22{fill:#ed975d;}.cls-23{fill:#8baaef;}.cls-24{fill:#f78248;}.cls-25{fill:#2e3552;}</style></defs><g id="Layer_2" data-name="Layer 2"><g id="_лой_1" data-name="‘лой_1"><path class="cls-1" d="M2408.59,1714.27l-1354.49-.46-680.64-.24-37.89,0-136.74,0S3.5,1554.6.11,1329.93C-6.55,887.25,283,1086.64,243.64,553.12,207.75,66.27,1145.51-196.25,1654.7,175.69c185.12,135.23,199.65,230.07,465.68,200.09,300.3-33.85,334.51,331.41,229.41,533.88C2200.65,1196.94,2763.32,1149.75,2408.59,1714.27Z"/><path class="cls-2" d="M1744.64,1712.18l-367.38.47-715.94.93-39.92.05,0-.06-94.48,0-196,.09c35.81-98.08,154.07-387.84,238.37-502.23A907.3,907.3,0,0,1,646,1120.11c50.28-52.21,83.53-7,116.69,26.72l.18.2c10.78,10.94,21.55,20.63,32.89,25.34,21.64,9,63.35-50.37,108.1-116.49q5.22-7.68,10.44-15.42h0c48-71.09,98-144.45,129.4-146,56.19-2.72,102.89,49.11,142,122.11h0c86.46,161.49,143.76,259.76,165,287.42,34.73,45.11,71,101.28,106.65,63.64,19.67-20.74,38.69-37.32,55.44-37.7,29.8-.69,61,28.81,90.59,71.71l0,0C1679.64,1512.38,1744.64,1712.18,1744.64,1712.18Z"/><path class="cls-3" d="M711,1154c-13.49-18.35-44.15,58.54-63.77,63.78s-1.23-27.09-9.81-39.32-68,33-68,33A908.19,908.19,0,0,1,646,1120.12c50.3-52.22,83.53-7,116.7,26.71l.18.2C770.57,1155,724.44,1172.3,711,1154Z"/><path class="cls-3" d="M1185.63,1016.59h0s-23.55-9.42-34.59-17.28,0,31.45-19.62,41.06-27-28-49.06-34.21-57.64,80.51-85.85,81.38-7.35-68.14-13.49-79.5-68.76,32.41-68.76,32.41h0c48-71.08,98-144.45,129.4-146C1099.85,891.76,1146.54,943.6,1185.63,1016.59Z"/><path class="cls-3" d="M1558.83,1384.59c-5.52,8.74,11,31-3.06,31.89s-51.51-44.56-58.87-46.74-13.49,21.41-26.37,19.66c-5.87-.8-10.22-11-13.2-21.75,19.68-20.75,38.7-37.32,55.44-37.7,29.8-.69,61,28.82,90.58,71.71C1602.33,1401,1564.28,1376,1558.83,1384.59Z"/><path class="cls-4" d="M1643.55,928.91v716.33c0,39.91-31.22,72.26-69.73,72.26H1290.2c-38.51,0-69.73-32.35-69.73-72.26V916c0-64.86,37.22-120.69,90.72-145.86,14.64-6.89,23.87-22.18,23.87-38.82V702.46H1529v32.17A45.74,45.74,0,0,0,1553,775C1606.77,803.77,1643.55,861.88,1643.55,928.91Z"/><path class="cls-5" d="M1612.72,990.66V1621c0,35.11-26.7,63.58-59.62,63.58H1310.59c-32.93,0-59.62-28.47-59.62-63.58V979.3c0-4.79.22-9.54.67-14.21,6.07-1.89,52.56-15.42,104.78-2.62,56,13.73,102.15-13.18,168.06-13.18,45.9,0,66.23,7.1,84.24,5.48A162.19,162.19,0,0,1,1612.72,990.66Z"/><path class="cls-6" d="M1344,656h176.57a17.09,17.09,0,0,1,17.09,17.09v38.41a0,0,0,0,1,0,0H1326a0,0,0,0,1,0,0V674A18,18,0,0,1,1344,656Z"/><path class="cls-7" d="M1594.71,837.7s-31.63-50.92-59.29-43.93-9.51,24.83,7.31,43.93,28,23.3,41.18,16.1S1599.18,844.3,1594.71,837.7Z"/><path class="cls-8" d="M1169.38,588.39s19.94-44.4,67.61-39.46c0,0,69.21-74,143-9.87,0,0,78.45-15.89,136.56,13.76,38.73,19.77,51.53,40.5,51.53,40.5Z"/><path class="cls-8" d="M445.28,432.67s42.51-99.36,144.15-88.32c0,0,147.56-165.61,304.92-22.08,0,0,167.26-35.57,291.14,30.79,82.59,44.24,109.87,90.65,109.87,90.65Z"/><path class="cls-8" d="M1862.91,523.15s15-42.26,50.91-37.56c0,0,52.12-70.43,107.69-9.39,0,0,59.08-15.13,102.83,13.1,29.17,18.81,38.81,38.55,38.81,38.55Z"/><path class="cls-8" d="M877.15,190.29s14.85-38.24,50.36-34c0,0,51.56-63.72,106.54-8.49,0,0,58.44-13.69,101.72,11.84,28.85,17,38.38,34.88,38.38,34.88Z"/><path class="cls-9" d="M2022.67,640.09c.1-2.62,2.12-30.88,45.16-32.35,0,0-21.16,2.52-24.82,11.82,0,0,14.41-11.49,26.15-7.79s18.63,24.25,18.7,31-6.45,28.56-13.9,30.41a22.45,22.45,0,0,1-9,0,103.22,103.22,0,0,1,5.78,10.32c17.17,35.26-.54,69.71-15.08,65.9-9.32-2.44-12,13.47-12,13.47l-90.59-73.34S1986.36,620.71,2022.67,640.09Z"/><path class="cls-10" d="M1845.82,1058.31c26.5-2.62,58-7.28,70.48-15,19.08-11.65,52.1-60.57,72.49-96.24.58-.88,1.9-19,2.34-19.82,10.63-18.93,15.45-7.28,16-22.28a75.56,75.56,0,0,0-2.48-23.88,60.85,60.85,0,0,0-10.78-21.55,11,11,0,0,0-2-2.48A50.18,50.18,0,0,0,1978,845.27c-3.49-1.46-7.28.29-11.21,4.51v.15a66.87,66.87,0,0,0-10,14.85c-.14.15-.29.29-.29.44-.73,1.31-1.46,2.77-2.33,4.37a3.54,3.54,0,0,0-.58,1q-2.4,5-4.81,10.48c-17.91,39-31.39,103.56-47.26,121.18-6.85,7.57-43.75,17-68.65,28.08C1815,1038.21,1828.2,1060.2,1845.82,1058.31Z"/><path class="cls-4" d="M1991.13,1678.66l19.24,7.17s83.58-115.92,93.87-217.91c1.84-18.21,1.22-35.85-2.75-52.14,0,0,.82-4.66,2.25-12.91.66-3.85,1.47-8.48,2.4-13.79,2.72-15.57,6.46-36.88,10.73-61.13,9.83-55.82,22.57-127.17,32.47-179.62l-5.18-1.67-56.1-18.1-11.6-36.82-41.77-11s-9.33,18.26-17.67,104.49c-1.54,11.31-2.94,23.78-4,37.31a738.64,738.64,0,0,0,4,151q2.88,22.47,7.34,46.36c2.2,11.65,2.53,27.53,1.6,45.77C2021.73,1549.09,1991.13,1678.66,1991.13,1678.66Z"/><path class="cls-11" d="M2013,1222.54l90.71,180.33c.66-3.85,1.47-8.48,2.4-13.79,2.72-15.57,6.46-36.88,10.73-61.13,9.83-55.82,22.57-127.17,32.47-179.62l-5.18-1.67-56.1-18.1-11.6-36.82-57.14-15S2013,1188.14,2013,1222.54Z"/><path class="cls-4" d="M2052.93,1103.88l2.1-18c35.18,9.34,129.18-26.11,129.18-26.11s34.08,30,29.6,101.76c-2.18,35-6.17,184-10.34,228.07-1.5,16-2.82,27.34-3.36,31.88a.08.08,0,0,0,0,0,6.3,6.3,0,0,0,1,3.91,206.78,206.78,0,0,1,15.38,32.34c40.9,109-6.3,243.19-6.3,243.19L2198,1696s-26.85-149.36-48.67-215.35c-3.71-11.19-7.26-20-10.51-25.24-9.49-15.31-18.3-40.34-26.29-70.1-15.11-56.26-27.26-129.46-35.36-185.95C2076,1199.44,2052.93,1103.88,2052.93,1103.88Z"/><path class="cls-10" d="M1985.72,885.47c11,5.12,24.39,8.61,40.52,9.49,60.48,3.31,74.21-49.71,76.71-84.9a50.75,50.75,0,0,0-20.75-2.62c-1.64.09-3.3.21-4.94.35a17.84,17.84,0,0,1-15.57-6.8c-6.91-8.85-15-24.59-20.32-46.46l-2.61,1.21-43.64,20.52s4.63,14.2,8.06,27.79a143.94,143.94,0,0,1,3.27,16.11,9.59,9.59,0,0,1-5.78,10h0a.18.18,0,0,1,0,0A299.43,299.43,0,0,0,1985.72,885.47Z"/><path class="cls-6" d="M1970.6,925.15c.45,1.21,1,2.39,1.5,3.6,15.32,33,43.68,169.65,43.68,169.65,8.7,26.42,184.65-4.82,185.14-27.19,6.64-23.73-23.58-61.84-40.63-81a54.57,54.57,0,0,1-5.72-7.69,53.71,53.71,0,0,1-7.73-22.56c-3.34-31.72-2.07-61.44-2.35-79.51h0c-3.33-2.47-6.55-4.74-9.55-6.91a84.63,84.63,0,0,1-11.63-9.65c-3.28-3.45-5.34-7-5.58-11a58,58,0,0,1,.24-9.2c.14-1.47.33-2.93.55-4.39a124.47,124.47,0,0,1,8.76-29.26c-16.22-6.57-45.08-2.66-45.08-2.66s0,1.6,0,4.23c.1,10.54,0,37.61-3.37,42.73-4.23,6.38-81.54,34.32-85.62,25.67s7-48.41,7.4-49.91a.18.18,0,0,0,0,0c-25.88,10.16-35.14,18.69-35.14,18.69C1981.12,858.92,1958.53,893.15,1970.6,925.15Z"/><path class="cls-12" d="M1995.12,776.27s4.64,14.18,8.06,27.79c25.51-7.12,33.25-33.94,35.58-48.31Z"/><path class="cls-10" d="M1989.75,791.29s61-14.13,51.65-52-7.83-65.2-47.19-57.78-43.32,23.74-43.27,37.14S1973.63,794,1989.75,791.29Z"/><path class="cls-9" d="M1947.51,697.15c6.56-13.73,14.28-13,19.11-10.56,28.68-26.54,56.81-4.86,56.81-4.86,10.82,26.15,34.29,36.84,34.29,36.84s-9.38,9.6-36.55,9.39c-8.3-.06-16.65-3.88-24.24-9.13a145.82,145.82,0,0,0,31.82,23.74c-34-6.51-56.83-45.89-59.16-50.08-2.89,4.26-8.4,13.32-8.86,21-.63,10.39,2.94,30.58-3,31.34C1957.72,744.8,1937.67,717.73,1947.51,697.15Z"/><path class="cls-6" d="M1965.52,848.8c-6.88,6-14.7,25.63-16.9,32.23,0,0,19.06-.74,26.75,13.92C1975.37,895,1975.44,840.19,1965.52,848.8Z"/><path class="cls-13" d="M2066.58,1052.48c37.22-.39,68.73-39,88-69.92a53.71,53.71,0,0,1-7.73-22.56c-3.34-31.72-2.07-61.44-2.35-79.51h0c-3.33-2.47-6.55-4.74-9.55-6.91a84.63,84.63,0,0,1-11.63-9.65C2092.83,915.45,2016.12,1053,2066.58,1052.48Z"/><path class="cls-14" d="M2139,1711h96.91s2.33-14.77-2.74-26c-4.85-10.75-12.44-15.64-10.62-28.65-6.16,6.34-16.2,13.44-30.21,11.56-1.72,2.78-11.08,17.68-16.82,21.8C2169.19,1694.25,2141,1692.62,2139,1711Z"/><path class="cls-14" d="M1930.91,1711h96.91s3.63-15.46-2.73-26c-5.64-9.31-3.48-14.61.69-22.31a37.72,37.72,0,0,1-16.32,3.08c-4.83-.28-9.93-2.47-14.41-5.07-4.17,4.75-22,25-27.62,29C1961.1,1694.25,1932.86,1692.62,1930.91,1711Z"/><path class="cls-10" d="M1918,1078.61l3.9,15s48.39-10.15,59-12.48h.15c18.2-4.37,38.59-9.61,55.77-15.43,12.09-4.23,22.57-8.74,29.71-13.25a18.44,18.44,0,0,0,2-1.46c17-12.38,37.28-48.78,53-87.81,2.19-5.39,4.23-10.77,6.26-16,7.29-19.51,13.11-38.73,16.6-55.33a156.79,156.79,0,0,0,3.94-26.36,64.7,64.7,0,0,0,.14-7.43c-.29-42.23-21.26-48.05-21.26-48.05-.44-.15-.87-.29-1.45-.44-3.65-.58-7.43,1.89-11.36,6.7-4.95,6-10.2,15.73-15.58,27.52-8.3,18.79-17,43.11-25.2,67.28-4.51,13.25-8.88,26.5-13.25,38.73-2.47,7.43-4.95,14.42-7.28,20.83-4.51,12.23-8.59,22.13-12.23,28.39-2.33,4.08-9,9.76-17.91,16.17C2007.6,1026.42,1918,1078.61,1918,1078.61Z"/><path class="cls-6" d="M2094.6,845.46c28-7.73,54,12.57,54,12.57-.35-42.16-21.33-47.93-21.33-47.93C2118.83,806.6,2104.69,822.81,2094.6,845.46Z"/><path class="cls-10" d="M1927.37,1073.15s-24.64,9.6-29.41,13.34-13.94,16-15.58,22.4c0,0,.08,2.63,2.54,2.63s8-9.44,12-7.93c0,0-5.13,12.5-8.15,15.66s-4.75,19.08-4.13,22.53,21.36-13,30.06-20.5c4.63-4,4.49-13.66,5.92-24.59,1.26-9.59,27.73-15.13,27.73-15.13Z"/><path class="cls-10" d="M1811.1,1052.44s-12.57,11.55-9.12,24,16.82,13.94,19,7.37S1817.64,1050.14,1811.1,1052.44Z"/><path class="cls-5" d="M1665.48,831.72c0-28.27,46.88-83.16,46.88-83.16s46.88,54.89,46.88,83.16-21,51.2-46.88,51.2S1665.48,860,1665.48,831.72Z"/><path class="cls-15" d="M1680.76,848.38a19.27,19.27,0,0,1-.92-7.86c.55-12.39,12-19.07,21.09-10.66a34.24,34.24,0,0,1,6.28,8.66c3.53,8.58,2,16.31-5.83,19.55S1684.29,857,1680.76,848.38Z"/><path class="cls-5" d="M677.06,744.13c0-66,109.44-194.15,109.44-194.15S896,678.13,896,744.13,847,863.65,786.5,863.65,677.06,810.14,677.06,744.13Z"/><path class="cls-15" d="M712.73,783c-1.94-4.7-2.47-11.18-2.15-18.36,1.28-28.92,28-44.52,49.23-24.87,5.27,4.88,12.72,15.5,14.66,20.2,8.23,20,4.72,38.09-13.62,45.64S721,803.05,712.73,783Z"/><rect class="cls-14" x="1169.38" y="1376.3" width="210.3" height="34.42"/><path class="cls-16" d="M1069.78,1699.13H981.52V594.75a384.33,384.33,0,1,1,768.66,0v91h-88.26v-91a296.07,296.07,0,0,0-592.14,0Z"/><path class="cls-16" d="M1076.39,1338.14h52.86a51.39,51.39,0,0,1,51.39,51.39v8a51.39,51.39,0,0,1-51.39,51.39h-52.86a0,0,0,0,1,0,0V1338.14A0,0,0,0,1,1076.39,1338.14Z"/><path class="cls-6" d="M1466.77,1433l-189.55-8a24.25,24.25,0,0,1-23.23-24.23v-16.93a24.25,24.25,0,0,1,23.53-24.23l189.55-5.6a24.25,24.25,0,0,1,25,24.23v30.49A24.26,24.26,0,0,1,1466.77,1433Z"/><path class="cls-14" d="M986.19,1274.91h82a34.53,34.53,0,0,1,34.53,34.53v389.69a0,0,0,0,1,0,0H948.63a0,0,0,0,1,0,0V1312.47A37.57,37.57,0,0,1,986.19,1274.91Z"/><path class="cls-17" d="M871.93,1678.76h307.44a26.55,26.55,0,0,1,26.55,26.55v5.11a0,0,0,0,1,0,0H845.38a0,0,0,0,1,0,0v-5.11A26.55,26.55,0,0,1,871.93,1678.76Z"/><rect class="cls-18" x="1646.46" y="656.03" width="119.19" height="38.76" rx="14.02"/><polygon class="cls-19" points="1541.39 913.64 1904.47 913.64 1874.02 1659.96 1560.04 1655.61 1541.39 913.64"/><path class="cls-20" d="M1884,1142.53l-14,447.34c-.68,21.47-15.59,38.48-33.74,38.48H1602c-19.16,0-34.94-17.86-35.78-40.54L1548,1098.44c28.55-7,84.87-12.09,152.06,26.92C1757.06,1158.44,1831.74,1152.88,1884,1142.53Z"/><rect class="cls-5" x="1527.53" y="913.65" width="376.94" height="4.75"/><path class="cls-14" d="M1911.57,914.26,1887.3,1689.8a21.72,21.72,0,0,1-21.71,21H1550.43l-29.66-796.59h20.63l5.24,142.23,1.39,37.78,18.22,493.78c.84,22.89,16.62,40.91,35.78,40.91h234.24c18.16,0,33.07-17.15,33.75-38.82l14-451.37,3.25-104.63L1891,914.26Z"/><path class="cls-7" d="M1862.4,956.21s-.65-16.27-22.08-16.27c-34.58,0-33.12,118.84-21.43,132.48s34.84,6.19,39-1.3C1873.75,1042.22,1862.4,956.21,1862.4,956.21Z"/><path class="cls-7" d="M1849.4,1524.38c-.94-6.41-2.75-18.88-14.29-21.62s-24.26,11-30.82,33.53-40.11,37.94-29.66,57.73,43.65,13.51,52.71,6C1843.91,1586.33,1852.14,1542.93,1849.4,1524.38Z"/><path class="cls-20" d="M1768.42,1137.57s-42.21-10.55-50-30.6,6.33-31.43,20.94-27,8,23.47,18.51,40.51Z"/><path class="cls-21" d="M1351.4,1575.58c10.49,4.25,47.95.81,49.16-2.18s-23.28-31.54-33.77-35.79a20.49,20.49,0,0,0-15.39,38Z"/><path class="cls-21" d="M1445.91,1593.46c-5.89,9.67-8.55,47.19-5.79,48.87s34.89-17.89,40.78-27.55a20.49,20.49,0,0,0-35-21.32Z"/><path class="cls-21" d="M1395.42,1666.9c10.78,3.44,47.87-2.83,48.85-5.91s-25.62-29.68-36.4-33.12a20.48,20.48,0,0,0-12.45,39Z"/><path class="cls-21" d="M1450,1703.22c0-.85-4.18-85.78-50.68-129.64l1-1c46.94,44.26,51.1,129.77,51.14,130.63Z"/><path class="cls-21" d="M1605.21,1577.41c-6.53,4.34-32.44,7.19-33.68,5.33s11.45-24.64,18-29a14.19,14.19,0,1,1,15.7,23.65Z"/><path class="cls-21" d="M1543.52,1602.63c5.34,5.75,12.33,30.86,10.69,32.38s-26.16-7.32-31.49-13.06a14.19,14.19,0,0,1,20.8-19.32Z"/><path class="cls-21" d="M1588,1645.51c-6.85,3.82-32.9,4.69-34,2.74s13.29-23.69,20.13-27.52a14.2,14.2,0,0,1,13.86,24.78Z"/><path class="cls-21" d="M1556,1677.72c-.1-.59-9-58.83,16.47-95l-.82-.57c-25.74,36.54-16.73,95.17-16.64,95.76Z"/><path class="cls-21" d="M1509.9,1698.27l-3-.47c-11.65-150.77-57.69-259-58.34-260.44l2.7-1.16C1451.94,1437.68,1498.32,1546.59,1509.9,1698.27Z"/><path class="cls-3" d="M1417.37,1422.18c5.67,6.44,32.26,16.78,34.1,15.16s-5.13-29.28-10.81-35.72a15.53,15.53,0,0,0-23.29,20.56Z"/><path class="cls-3" d="M1458.11,1399.76c-5.13,6.88-9.78,35-7.82,36.49s27.61-11,32.73-17.92a15.54,15.54,0,1,0-24.91-18.57Z"/><path class="cls-3" d="M1488.69,1429.69c-8.27-2.26-36.17,3.7-36.82,6.06s20.38,21.66,28.65,23.91a15.53,15.53,0,1,0,8.17-30Z"/><path class="cls-3" d="M1469.84,1467c-.82-8.54-16.29-32.51-18.72-32.28s-13,26.73-12.2,35.27a15.53,15.53,0,1,0,30.92-3Z"/><path class="cls-3" d="M1427.53,1465.17c7.59-4,24-27.36,22.82-29.53s-29.67-2-37.27,2a15.54,15.54,0,0,0,14.45,27.51Z"/><path class="cls-17" d="M1445.29,1434.83a5.12,5.12,0,1,1,4.25,5.86A5.11,5.11,0,0,1,1445.29,1434.83Z"/><path class="cls-21" d="M1509.06,1544.12c-8.45,10.38-17.56,53.93-14.59,56.34s43.74-15.39,52.18-25.77a24.23,24.23,0,1,0-37.59-30.57Z"/><path class="cls-21" d="M1342,1713.69l-2,0c-21-99-61-166.78-61.57-167.7l1.69-1C1280.64,1545.87,1321,1614.06,1342,1713.69Z"/><path class="cls-3" d="M1256.33,1538.62c4.34,3.77,22.89,8.3,24,7.06s-6-19-10.3-22.75a10.4,10.4,0,0,0-13.66,15.69Z"/><path class="cls-3" d="M1281.4,1520.16c-2.8,5-3.42,24.1-2,24.9s17.34-9.75,20.14-14.77a10.4,10.4,0,0,0-18.16-10.13Z"/><path class="cls-3" d="M1304.32,1537.33c-5.69-.76-23.68,5.64-23.9,7.26s15.42,12.58,21.11,13.35a10.4,10.4,0,1,0,2.79-20.61Z"/><path class="cls-3" d="M1295.09,1563.75c-1.3-5.59-13.66-20.15-15.26-19.77s-6.3,18.87-5,24.47a10.4,10.4,0,1,0,20.26-4.7Z"/><path class="cls-3" d="M1266.85,1566.25c4.69-3.32,13.49-20.26,12.55-21.6s-19.86,1.3-24.55,4.61a10.4,10.4,0,0,0,12,17Z"/><path class="cls-17" d="M1276,1544.56a3.42,3.42,0,1,1,3.33,3.51A3.42,3.42,0,0,1,1276,1544.56Z"/><path class="cls-21" d="M1327.88,1611.48c-4.69,7.63-6.92,37.32-4.74,38.66s27.68-14.05,32.37-21.68a16.22,16.22,0,0,0-27.63-17Z"/><path class="cls-21" d="M1661.83,1700.6l2.64-.42c10.38-134.27,51.38-230.64,52-231.94l-2.4-1C1713.45,1468.53,1672.15,1565.52,1661.83,1700.6Z"/><path class="cls-3" d="M1744.25,1454.72c-5.06,5.73-28.74,15-30.37,13.5s4.57-26.08,9.62-31.81a13.84,13.84,0,0,1,20.75,18.31Z"/><path class="cls-3" d="M1708,1434.75c4.57,6.13,8.71,31.2,7,32.5s-24.58-9.84-29.15-16a13.84,13.84,0,0,1,22.19-16.54Z"/><path class="cls-3" d="M1680.72,1461.41c7.38-2,32.22,3.29,32.8,5.4s-18.15,19.28-25.52,21.29a13.83,13.83,0,1,1-7.28-26.69Z"/><path class="cls-3" d="M1697.51,1494.64c.74-7.61,14.51-29,16.68-28.75s11.6,23.8,10.86,31.41a13.83,13.83,0,0,1-27.54-2.66Z"/><path class="cls-3" d="M1735.2,1493c-6.77-3.55-21.34-24.36-20.32-26.29s26.42-1.76,33.18,1.79a13.84,13.84,0,1,1-12.86,24.5Z"/><path class="cls-17" d="M1719.37,1466a4.55,4.55,0,1,0-3.78,5.22A4.54,4.54,0,0,0,1719.37,1466Z"/><path class="cls-21" d="M1655.72,1599.27c7.52,9.24,15.63,48,13,50.18s-39-13.71-46.47-23a21.57,21.57,0,1,1,33.48-27.22Z"/><path class="cls-21" d="M1235.85,1710.44s14.9-39.16,69-41.62,91.32,29.5,136,14.75,118.64-48,188.6-25.87,81.75,52.74,81.75,52.74Z"/><path class="cls-14" d="M616.43,1710.92H499.53c-8.38-5.68,2.26-61.21,2.26-61.21s31.9-12.1,37.41,12.52,40.64,32.42,59.22,35.42C611.14,1699.72,615.15,1706.7,616.43,1710.92Z"/><path class="cls-6" d="M597.08,1094.39l-54.57,566.83s-11.43,17.61-47.71,5.73c0,0-28-91.55-36.35-196-.13-1.72-.27-3.44-.39-5.17-2.77-37.74-6.07-90.31-9.19-142.42-5.67-94.73-10.7-188-10.7-188Z"/><path class="cls-13" d="M526.74,1202.83S508,1329.08,501.57,1367.46c-13.76,81.7-43.12,103.44-43.12,103.44-.13-1.72-.27-3.44-.39-5.17-2.77-37.74-6.07-90.31-9.19-142.42Z"/><path class="cls-10" d="M790.61,943.4s10.83-13.14,16.66-15,17.1-10.57,18.57-7-7.58,9.14-7.1,13.25c.21,1.81,7.2,1.9,15,1.81,9.84-.11,21.81-5.4,22.25-3,1.62,8.76-11.28,24.71-24.68,26.14-10.79,1.14-25.81-1.09-43.83.81C781.18,961.11,790.61,943.4,790.61,943.4Z"/><path class="cls-4" d="M798,962.72c-.37,1.06-39.23,7.56-72.87,12.27-19.8,2.79-37.8,5-45.08,5-15.82.18-46.1-5.15-81.92-20.24a348.12,348.12,0,0,1-63.51-35.06c-19.21-13.35-19.8-23.82-35.78-45.28-49.58-66.6,15.59-94.77,51.42-82,24.79,8.84,39.82,23.9,53.25,44.29,15.9,24.14,28.87,51,68.46,74.21,29.82,17.5,118.72,22.29,118.72,22.29a18.39,18.39,0,0,1,6.54,10.23A54.91,54.91,0,0,1,798,962.72Z"/><path class="cls-14" d="M443.06,1710.92H326.16c-8.37-5.68,2.26-61.21,2.26-61.21s31.91-12.1,37.42,12.52,40.63,32.42,59.21,35.42C437.77,1699.72,441.79,1706.7,443.06,1710.92Z"/><path class="cls-6" d="M553.22,1121.77l-177,541.81s-37.67,10.07-57-10.47c0,0,4.48-191,28.64-256.26,19.55-52.77,10.07-337.71,96.73-340.13S553.22,1121.77,553.22,1121.77Z"/><path class="cls-4" d="M593.73,1125.23c-27.31,14.06-62.74,24-121.23,20.14-56.2-3.66-90.55-19.07-88.81-32.51.87-6.69,1.71-13.57,2.44-20.76,3.16-31,4.41-67.74-2-120.61-1.65-13.72-3.77-28.29-5.56-41v0h0c-2.17-15.44-3.88-28.06-3.68-32.82,0,0,17.79-79.91,31.12-92.75,4.76-4.59,11.75-8.45,20.23-11.52l.08,0c40.18-14.48,114-11.2,146.68,17.08,4.45,3.86,20.21,30.5,20.65,59.3C594.28,909.9,611.47,1116.1,593.73,1125.23Z"/><path class="cls-10" d="M454.77,790.47c-4-5.09,7.34-14.59,2.27-51.79-.07-.48,3.61.21,9.18,1.52,16.56,3.92,49.86,13.37,51.34,13.79h.05s.41,7.82,1.78,21.85c.12,1.23.24,2.52.38,3.86.17,1.65.29,3.4.54,5.18C524.26,812.87,473.64,814.29,454.77,790.47Z"/><path class="cls-22" d="M519.39,775.84C494.67,781.5,457.76,745,457.76,745a38.7,38.7,0,0,1,8.46-4.8c16.56,3.92,49.86,13.37,51.34,13.79h.05S518,761.81,519.39,775.84Z"/><path class="cls-10" d="M527.79,752a125.39,125.39,0,0,1-23.13,5.39c-19,2.56-43.88,1.05-51.71-21.88-13.19-38.61-30-61.76,8.77-77.52,20.78-8.44,34.08-8.89,43.1-5.67,7.85,2.78,12.47,8.34,16,13.83C528.33,678,543.49,745.25,527.79,752Z"/><path class="cls-14" d="M519.24,634c14.17,12.77,6.14,36.27-12.88,37.63-7.63.54-13.9.24-18.24,2.17-9.66,4.29-11.39,20.48-11.56,25.62s-.85,9.49-14,6.41c-2.15-.5-3.7-.35-4.76.29-5.44,3.22,1.51,18.86,3.6,22.24,0,0,3,11.21-3.67,16.66-.81.65-14,6.4-45.65-42.1-5-7.61-9.74-24.76-2.05-41.27s39.23-34.6,67-40.93C494.27,616.8,508.64,624.43,519.24,634Z"/><path class="cls-3" d="M528.09,727.09s.81,5-10.81,9c0,0-9.75,3.35-11.54-1.77C505.74,734.3,513.49,726.92,528.09,727.09Z"/><path class="cls-23" d="M725.16,975c-19.8,2.79-37.8,5-45.08,5-15.82.18-46.1-5.15-81.92-20.24-1.46-5.11-2.93-37.06.2-39.21,9.48-6.52,28.34,30.32,60,39.89C685.29,968.6,716.47,973.66,725.16,975Z"/><path class="cls-23" d="M396.45,1094.75a9.78,9.78,0,0,1-10.32-2.65c3.16-31,4.41-67.74-2-120.61-1.65-13.72-3.77-28.29-5.56-41v0s26.51-22.81,35.59-4-16.88,68.84-2.59,98.72S412.48,1090.25,396.45,1094.75Z"/><path class="cls-10" d="M356.88,1077.14s14.32,10.39,18,9.78c10.76-1.8,16.34-10.57,26.33-9.73s31.13,12,28.68,14.57c-8.88,9.28-22.58,4.26-29,9.93-4.47,3.94-7.15,12.13-23.39,10.47s-30.59-15-30.59-15Z"/><path class="cls-4" d="M426.38,793.36s-62.59,17.49-107.14,78.86-59,102.83-41.43,133.52,51.63,85,84.75,107.8c0,0,16.56-3.54,15.26-28.87,0,0-40.66-86.68-39.19-98.41,2.73-21.83,60.62-77.18,73.28-88.59S426.38,793.36,426.38,793.36Z"/><path class="cls-10" d="M381.65,1085.73s7.21-11.15,8.19-14.4,2.63,1.69,1.94,5a13.13,13.13,0,0,0,.16,6Z"/><path class="cls-21" d="M2358,1711h-79.6c-4.26-3.62,3-11.84,10.5-12.39,3.27-.25,7.41.44,12.14,1.44,1.1-14.55,7.36-80,30.93-77.33,26.51,3,0,28.81-7.49,44.12-5.55,11.34-11.41,27.6-14.09,35.27,2.16.47,4.38.93,6.66,1.35,3.51-10.79,16.59-47.08,33.21-45,19.52,2.47,11.68,17-2.16,25.66-10.15,6.35-22.61,15.37-28.54,19.73a84,84,0,0,0,15.57,1.25C2348.78,1704.79,2355.43,1708.81,2358,1711Z"/><path class="cls-21" d="M738.53,1710l-2.37-.38c-9.35-120.9-46.26-207.66-46.78-208.84l2.16-.93C692.05,1501,729.24,1588.37,738.53,1710Z"/><path class="cls-3" d="M664.33,1488.62c4.55,5.15,25.87,13.45,27.34,12.15s-4.11-23.48-8.66-28.64a12.46,12.46,0,1,0-18.68,16.49Z"/><path class="cls-3" d="M697,1470.64c-4.11,5.51-7.84,28.08-6.27,29.26s22.14-8.86,26.25-14.38a12.46,12.46,0,0,0-20-14.88Z"/><path class="cls-3" d="M721.52,1494.63c-6.63-1.8-29,3-29.52,4.87s16.34,17.36,23,19.17a12.46,12.46,0,1,0,6.55-24Z"/><path class="cls-3" d="M706.41,1524.55c-.66-6.84-13.06-26.07-15-25.88S681,1520.1,681.61,1527a12.46,12.46,0,0,0,24.8-2.4Z"/><path class="cls-3" d="M672.48,1523.08c6.09-3.2,19.21-21.93,18.29-23.67s-23.78-1.58-29.88,1.62a12.46,12.46,0,0,0,11.59,22Z"/><path class="cls-24" d="M686.72,1498.76a4.11,4.11,0,1,1,3.41,4.7A4.1,4.1,0,0,1,686.72,1498.76Z"/><path class="cls-21" d="M727.36,1534.31c-6.77,8.33-14.08,43.25-11.7,45.18s35.08-12.34,41.84-20.66a19.43,19.43,0,1,0-30.14-24.52Z"/><path class="cls-21" d="M710.71,1634.61c7,3.43,22.57,24.28,21.6,26.28s-27,2.6-34-.82a14.16,14.16,0,0,1,12.41-25.46Z"/><path class="cls-21" d="M802.55,1710l2.72-.44c10.73-138.8,53.12-238.41,53.71-239.77l-2.48-1.07C855.91,1470.09,813.21,1570.36,802.55,1710Z"/><path class="cls-3" d="M887.74,1455.83c-5.23,5.92-29.71,15.44-31.4,14s4.73-27,9.95-32.88a14.3,14.3,0,0,1,21.45,18.93Z"/><path class="cls-3" d="M850.23,1435.18c4.72,6.34,9,32.25,7.2,33.6s-25.42-10.17-30.14-16.51a14.3,14.3,0,0,1,22.94-17.09Z"/><path class="cls-3" d="M822.07,1462.73c7.62-2.07,33.31,3.41,33.9,5.59s-18.75,19.93-26.38,22a14.3,14.3,0,0,1-7.52-27.6Z"/><path class="cls-3" d="M839.43,1497.09c.76-7.86,15-29.94,17.24-29.72s12,24.61,11.23,32.47a14.3,14.3,0,0,1-28.47-2.75Z"/><path class="cls-3" d="M878.39,1495.4c-7-3.67-22.06-25.19-21-27.19s27.31-1.81,34.3,1.86a14.3,14.3,0,0,1-13.29,25.33Z"/><path class="cls-24" d="M862,1467.47a4.71,4.71,0,1,0-3.91,5.39A4.71,4.71,0,0,0,862,1467.47Z"/><path class="cls-21" d="M803.33,1568.08c7.77,9.56,16.16,49.65,13.43,51.87s-40.27-14.17-48-23.73a22.3,22.3,0,0,1,34.61-28.14Z"/><path class="cls-21" d="M834.49,1623.44c-8.07,3.94-25.92,27.88-24.8,30.18s31,3,39-.95a16.26,16.26,0,0,0-14.25-29.23Z"/><path class="cls-21" d="M878.33,1710.42s-9.33-14.54-33-15.83-35.31,12.33-59.17,4.54-86.08-14.8-99.54,10.87Z"/><path class="cls-25" d="M2505.39,1717.93,89.25,1717.1a2.92,2.92,0,0,1-2.91-2.92v-1.41a2.92,2.92,0,0,1,2.91-2.92l2416.14.84a2.92,2.92,0,0,1,2.92,2.91V1715A2.93,2.93,0,0,1,2505.39,1717.93Z"/></g></g></svg>